<svg xmlns="http://www.w3.org/2000/svg" width="45" height="22" viewBox="0 0 45 22">
    <g fill="none" fill-rule="evenodd">
        <path fill="#F5A623" d="M5 0h40v22H5a5 5 0 0 1-5-5V5a5 5 0 0 1 5-5z"/>
        <g fill-rule="nonzero">
            <path fill="#FFF" d="M11.594 17.958a.927.927 0 0 1-.694-.29l-5.522-5.635c-.206-.197-.36-.46-.502-.802a2.357 2.357 0 0 1-.206-.92v-3.27c0-.276.103-.513.296-.71a.948.948 0 0 1 .695-.301h3.218c.27 0 .566.065.901.21.322.144.592.315.784.512l5.521 5.624c.193.21.283.446.283.722 0 .276-.103.512-.283.709l-3.784 3.863a.977.977 0 0 1-.707.288zm7.451-4.152l-3.784 3.876a.98.98 0 0 1-.708.29c-.18 0-.334-.027-.45-.106a2.83 2.83 0 0 1-.412-.355l3.618-3.705a.973.973 0 0 0 .283-.708c0-.275-.09-.513-.283-.723l-5.522-5.623c-.193-.21-.45-.368-.785-.513a2.222 2.222 0 0 0-.9-.21h1.737c.27 0 .566.066.9.21.323.145.593.316.786.513l5.52 5.622c.193.21.284.447.284.723 0 .276-.09.512-.284.71z"/>
            <path fill="#FB5607" d="M7.141 7.566a.927.927 0 0 0-.694.289.976.976 0 0 0-.283.709c0 .274.09.512.283.708.194.196.426.29.694.29a.93.93 0 0 0 .695-.29.928.928 0 0 0 .283-.708.967.967 0 0 0-.283-.71.934.934 0 0 0-.695-.288z"/>
        </g>
    </g>
</svg>
