<svg xmlns="http://www.w3.org/2000/svg" width="30" height="30" viewBox="0 0 30 30">
    <g fill="none" fill-rule="evenodd">
        <rect width="30" height="30" fill="#488EFF" rx="1"/>
        <g fill="#FFF" fill-rule="nonzero">
            <path d="M11.017 15.428c0-.16.061-.313.172-.426l6.667-6.82a.58.58 0 0 1 .823.01c.226.232.23.606.01.843l-6.665 6.82a.58.58 0 0 1-.643.131.604.604 0 0 1-.364-.558"/>
            <path d="M11.017 15.428a.601.601 0 0 1 .362-.56.578.578 0 0 1 .643.134l6.823 6.982a.613.613 0 0 1-.018.833.58.58 0 0 1-.815.019l-6.823-6.98a.613.613 0 0 1-.172-.428"/>
        </g>
    </g>
</svg>
