<svg xmlns="http://www.w3.org/2000/svg" width="30" height="30" viewBox="0 0 30 30">
    <g fill="none" fill-rule="evenodd">
        <rect width="29" height="29" x=".5" y=".5" stroke="#CFD2D0" rx="1"/>
        <g fill="#8A8A8A" fill-rule="nonzero">
            <path d="M18.983 15.428a.608.608 0 0 0-.172-.426l-6.667-6.82a.58.58 0 0 0-.823.01.613.613 0 0 0-.01.843l6.665 6.82a.58.58 0 0 0 .643.131.604.604 0 0 0 .364-.558"/>
            <path d="M18.983 15.428a.601.601 0 0 0-.362-.56.578.578 0 0 0-.643.134l-6.823 6.982a.613.613 0 0 0 .018.833.58.58 0 0 0 .815.019l6.823-6.98a.613.613 0 0 0 .172-.428"/>
        </g>
    </g>
</svg>
