<svg xmlns="http://www.w3.org/2000/svg" width="20" height="25" viewBox="0 0 20 25">
    <path fill="#B9C2D2" fill-rule="nonzero" d="M9.99 25c-1.119 0-2.111-.313-2.92-.874-.808-.562-1.305-1.375-1.305-2.251h8.388c0 .874-.435 1.687-1.306 2.251-.743.561-1.738.874-2.857.874zm7.83-8.999l-.497-.5V9.374c0-1.626-.685-3.313-1.864-4.688a8.441 8.441 0 0 0-1.988-1.625c-.498-.25-.932-.501-1.43-.625v-.374C12.041.937 11.11 0 9.93 0 8.75 0 7.818.938 7.818 2.063v.376c-1.367.376-2.549 1.186-3.48 2.25C3.281 6.004 2.66 7.69 2.66 9.378v6.187s0 .124-.247.437c-.187.249-.435.5-.746.813-.932.937-1.987 2.063-1.553 3.061.187.501.745.875 1.617 1.063.808.187 1.987.312 3.54.312h10.5c1.18 0 2.052-.125 2.734-.313.684-.249 1.119-.561 1.366-1.062.559-1.313-.995-2.875-2.05-3.874zM14.714 10h-1.056V8.938h1.056V10zm0-2s-.064.376-.622.313-.497-.5-.497-.562c0-.124 0-.688-.87-1.626-.808-.876-1.676-.876-1.676-.876-.311 0-.559-.188-.559-.5 0-.313.187-.562.498-.562.063 0 1.366-.063 2.548 1.187.498.561.87 1.125 1.056 1.687.058.19.245.688.122.94z"/>
</svg>
