<svg xmlns="http://www.w3.org/2000/svg" width="24" height="23" viewBox="0 0 24 23">
    <path fill="#BCCAE5" fill-rule="nonzero" d="M23.718 21.605l-4.147-3.786a10.782 10.782 0 0 0 1.67-2.702c.576-1.34.868-2.764.868-4.232 0-1.467-.292-2.891-.868-4.232a10.827 10.827 0 0 0-2.367-3.456 11.021 11.021 0 0 0-3.512-2.33 11.133 11.133 0 0 0-4.3-.854C9.57.013 8.122.3 6.76.868a11.021 11.021 0 0 0-3.512 2.33A10.827 10.827 0 0 0 .882 6.652a10.657 10.657 0 0 0-.869 4.232c0 1.468.293 2.892.869 4.232a10.828 10.828 0 0 0 2.367 3.456 11.021 11.021 0 0 0 3.512 2.33c1.362.567 2.81.854 4.3.854 1.492 0 2.938-.287 4.301-.854a11.017 11.017 0 0 0 3.095-1.941l4.167 3.803a.809.809 0 0 0 .547.212.808.808 0 0 0 .59-.254.783.783 0 0 0-.043-1.118zm-12.657-1.43c-5.205 0-9.44-4.168-9.44-9.29 0-5.122 4.235-9.29 9.44-9.29 5.205 0 9.44 4.168 9.44 9.29 0 5.122-4.235 9.29-9.44 9.29z"/>
</svg>
