<svg xmlns="http://www.w3.org/2000/svg" width="14" height="18" viewBox="0 0 14 18">
    <g fill="#5B9AFF" fill-rule="nonzero">
        <path d="M7.002 5.627c.854.001 1.588.63 1.754 1.504.167.872-.281 1.746-1.07 2.088-.788.341-1.699.055-2.175-.684a1.927 1.927 0 0 1 .217-2.357 1.756 1.756 0 0 1 1.274-.55zm0-1.125c-1.375.002-2.557 1.016-2.823 2.422-.266 1.405.457 2.811 1.728 3.358 1.27.546 2.735.081 3.497-1.11.763-1.193.61-2.78-.362-3.792a2.803 2.803 0 0 0-2.04-.878z"/>
        <path d="M11.945 2.185C10.65.79 8.865 0 7.002 0 5.138 0 3.354.789 2.058 2.185c-2.726 2.939-2.726 7.601 0 10.54L7.002 18l4.943-5.275c2.727-2.939 2.727-7.601 0-10.54zm-.745 9.797l-4.198 4.5-4.199-4.5c-2.318-2.491-2.318-6.45 0-8.942A5.737 5.737 0 0 1 7.002 1.19c1.582 0 3.097.668 4.198 1.851 2.318 2.491 2.318 6.451 0 8.942z"/>
    </g>
</svg>
