<svg xmlns="http://www.w3.org/2000/svg" width="240" height="76" viewBox="0 0 240 76">
    <g fill="none" fill-rule="nonzero">
        <path fill="#E4EAF5" d="M65.079 30.544l-3.264-11.64a2.77 2.77 0 0 0-1.314-1.891l-27.539-15.9a3.4 3.4 0 0 0-2.567-.325 3.344 3.344 0 0 0-2.034 1.577L.732 50.219c-.922 1.597-.373 3.646 1.23 4.588l34.779 20.08c1.617.917 3.666.368 4.589-1.23L64.838 32.94a2.96 2.96 0 0 0 .24-2.396zm-2.866-.61l-5.75-3.321 3.241-5.615 2.51 8.936zm-24.18 42.715L3.254 52.57a.778.778 0 0 1-.267-1.048l27.63-47.854a.771.771 0 0 1 .46-.376.784.784 0 0 1 .594.06l26.41 15.248-4.52 7.83c-.357.618-.141 1.41.482 1.77l7.894 4.558-22.863 39.599a.778.778 0 0 1-1.041.293z"/>
        <path fill="#488EFF" d="M35.689 59.364l-20.05-11.576a1.297 1.297 0 0 0-1.774.467c-.357.618-.141 1.41.481 1.77l20.051 11.576c.623.36 1.417.15 1.774-.467.356-.618.14-1.41-.482-1.77zm6.729-11.03a26.874 26.874 0 0 1-4.555-7.164l.271-.47a9.862 9.862 0 0 0 3.039-2.033 3.568 3.568 0 0 0 2.505-3.297l1.291-2.237a5.76 5.76 0 0 0 .807-4.812 5.861 5.861 0 0 0-3.174-3.744 5.913 5.913 0 0 0-4.917-.838 5.81 5.81 0 0 0-3.767 3.222l-1.292 2.237a3.491 3.491 0 0 0-1.512 3.661 9.836 9.836 0 0 0-.242 3.649l-.246.425c-2.83.368-5.706.26-8.507-.318a2.195 2.195 0 0 0-2.17 1.103l-1.615 2.797a2.16 2.16 0 0 0-.252 1.644c.138.56.495 1.046.99 1.347l18.9 10.913c.51.278 1.108.344 1.663.184a2.16 2.16 0 0 0 1.298-1.04l1.55-2.685a2.194 2.194 0 0 0-.065-2.544zm-3.647 3.712L20.728 41.628l1.292-2.237c7.355.906 9.487.496 10.41-.373.074-.095.135-.2.18-.313l.646-1.119c.155-.275.202-.598.133-.908a7.107 7.107 0 0 1 .213-3.337 1.291 1.291 0 0 0-.057-.838.95.95 0 0 1 .633-1.097c.258-.109.473-.299.613-.54l1.472-2.551a3.29 3.29 0 0 1 2.143-1.992 3.349 3.349 0 0 1 2.904.49c2.255 1.303 2.631 2.892 1.352 5.107l-1.485 2.573c-.14.242-.197.523-.162.801a.95.95 0 0 1-.633 1.096 1.291 1.291 0 0 0-.755.37 7.133 7.133 0 0 1-2.784 1.853 1.286 1.286 0 0 0-.72.569l-.645 1.119c-.075.095-.136.2-.18.313-.315 1.22.422 3.227 4.88 9.202l-1.407 2.23z"/>
        <path fill="#E4EAF5" d="M152.079 30.544l-3.264-11.64a2.77 2.77 0 0 0-1.314-1.891l-27.539-15.9a3.4 3.4 0 0 0-2.567-.325 3.344 3.344 0 0 0-2.034 1.577L87.732 50.219c-.922 1.597-.373 3.646 1.23 4.588l34.779 20.08c1.617.917 3.666.368 4.589-1.23l23.508-40.717a2.96 2.96 0 0 0 .24-2.396zm-2.866-.61l-5.75-3.321 3.241-5.615 2.51 8.936zm-24.18 42.715L90.254 52.57a.778.778 0 0 1-.267-1.048l27.63-47.854a.771.771 0 0 1 .46-.376.784.784 0 0 1 .594.06l26.41 15.248-4.52 7.83c-.357.618-.141 1.41.482 1.77l7.894 4.558-22.863 39.599a.778.778 0 0 1-1.041.293z"/>
        <path fill="#F7C961" d="M122.689 59.364l-20.05-11.576a1.297 1.297 0 0 0-1.774.467c-.357.618-.141 1.41.481 1.77l20.051 11.576c.623.36 1.417.15 1.774-.467.356-.618.14-1.41-.482-1.77zm6.729-11.03a26.874 26.874 0 0 1-4.555-7.164l.271-.47a9.862 9.862 0 0 0 3.039-2.033 3.568 3.568 0 0 0 2.505-3.297l1.291-2.237a5.76 5.76 0 0 0 .807-4.812 5.861 5.861 0 0 0-3.174-3.744 5.913 5.913 0 0 0-4.917-.838 5.81 5.81 0 0 0-3.767 3.222l-1.292 2.237a3.491 3.491 0 0 0-1.512 3.661 9.836 9.836 0 0 0-.242 3.649l-.246.425c-2.83.368-5.706.26-8.507-.318a2.195 2.195 0 0 0-2.17 1.103l-1.615 2.797a2.16 2.16 0 0 0-.252 1.644c.138.56.495 1.046.99 1.347l18.9 10.913c.51.278 1.108.344 1.663.184a2.16 2.16 0 0 0 1.298-1.04l1.55-2.685a2.194 2.194 0 0 0-.065-2.544zm-3.647 3.712l-18.043-10.418 1.292-2.237c7.355.906 9.487.496 10.41-.373.074-.095.135-.2.18-.313l.646-1.119c.155-.275.202-.598.133-.908a7.107 7.107 0 0 1 .213-3.337 1.291 1.291 0 0 0-.057-.838.95.95 0 0 1 .633-1.097c.258-.109.473-.299.613-.54l1.472-2.551a3.29 3.29 0 0 1 2.143-1.992 3.349 3.349 0 0 1 2.904.49c2.255 1.303 2.631 2.892 1.352 5.107l-1.485 2.573c-.14.242-.197.523-.162.801a.95.95 0 0 1-.633 1.096 1.291 1.291 0 0 0-.755.37 7.133 7.133 0 0 1-2.784 1.853 1.286 1.286 0 0 0-.72.569l-.645 1.119c-.075.095-.136.2-.18.313-.315 1.22.422 3.227 4.88 9.202l-1.407 2.23z"/>
        <g>
            <path fill="#E4EAF5" d="M239.079 30.544l-3.264-11.64a2.77 2.77 0 0 0-1.314-1.891l-27.539-15.9a3.4 3.4 0 0 0-2.567-.325 3.344 3.344 0 0 0-2.034 1.577l-27.629 47.854c-.922 1.597-.373 3.646 1.23 4.588l34.779 20.08c1.617.917 3.666.368 4.589-1.23l23.508-40.717a2.96 2.96 0 0 0 .24-2.396zm-2.866-.61l-5.75-3.321 3.241-5.615 2.51 8.936zm-24.18 42.715l-34.779-20.08a.778.778 0 0 1-.267-1.048l27.63-47.854a.771.771 0 0 1 .46-.376.784.784 0 0 1 .594.06l26.41 15.248-4.52 7.83c-.357.618-.141 1.41.482 1.77l7.894 4.558-22.863 39.599a.778.778 0 0 1-1.041.293z"/>
            <path fill="#BC92DE" d="M209.689 59.364l-20.05-11.576a1.297 1.297 0 0 0-1.774.467c-.357.618-.141 1.41.481 1.77l20.051 11.576c.623.36 1.417.15 1.774-.467.356-.618.14-1.41-.482-1.77zm6.729-11.03a26.874 26.874 0 0 1-4.555-7.164l.271-.47a9.862 9.862 0 0 0 3.039-2.033 3.568 3.568 0 0 0 2.505-3.297l1.291-2.237a5.76 5.76 0 0 0 .807-4.812 5.861 5.861 0 0 0-3.174-3.744 5.913 5.913 0 0 0-4.917-.838 5.81 5.81 0 0 0-3.767 3.222l-1.292 2.237a3.491 3.491 0 0 0-1.512 3.661 9.836 9.836 0 0 0-.242 3.649l-.246.425c-2.83.368-5.706.26-8.507-.318a2.195 2.195 0 0 0-2.17 1.103l-1.615 2.797a2.16 2.16 0 0 0-.252 1.644c.138.56.495 1.046.99 1.347l18.9 10.913c.51.278 1.108.344 1.663.184a2.16 2.16 0 0 0 1.298-1.04l1.55-2.685a2.194 2.194 0 0 0-.065-2.544zm-3.647 3.712l-18.043-10.418 1.292-2.237c7.355.906 9.487.496 10.41-.373.074-.095.135-.2.18-.313l.646-1.119c.155-.275.202-.598.133-.908a7.107 7.107 0 0 1 .213-3.337 1.291 1.291 0 0 0-.057-.838.95.95 0 0 1 .633-1.097c.258-.109.473-.299.613-.54l1.472-2.551a3.29 3.29 0 0 1 2.143-1.992 3.349 3.349 0 0 1 2.904.49c2.255 1.303 2.631 2.892 1.352 5.107l-1.485 2.573c-.14.242-.197.523-.162.801a.95.95 0 0 1-.633 1.096 1.291 1.291 0 0 0-.755.37 7.133 7.133 0 0 1-2.784 1.853 1.286 1.286 0 0 0-.72.569l-.645 1.119c-.075.095-.136.2-.18.313-.315 1.22.422 3.227 4.88 9.202l-1.407 2.23z"/>
        </g>
    </g>
</svg>
