<svg xmlns="http://www.w3.org/2000/svg" width="18" height="17" viewBox="0 0 18 17">
    <path fill="#717170" fill-rule="nonzero" d="M17.616 4.419L9.18.06a.381.381 0 0 0-.356 0L.387 4.419c-.232.12-.387.458-.383.836.003.378.165.71.4.819l1.998.93c-.001.014-.003.026-.003.04v2.974c0 .293.074.578.206.805.084.144.394.636.794.888a.81.81 0 0 0 .435.13c.233 0 .421-.19.421-.426a.424.424 0 0 0-.41-.427h-.002c-.202-.128-.42-.438-.516-.6a.757.757 0 0 1-.088-.366V7.396l1.64.774v7.301a.845.845 0 0 0-.338.68c0 .462.36.837.806.837.446 0 .807-.375.807-.837a.84.84 0 0 0-.433-.74V8.678l.105-.058 1.048.495 1.97.885a.376.376 0 0 0 .318-.003l5.326-2.478v2.715c0 .139-.032.273-.086.366-.06.101-1.511 2.48-5.538 2.48a9.076 9.076 0 0 1-1.819-.161.427.427 0 0 0-.17.837c.579.119 1.229.178 1.988.178 4.5 0 6.192-2.778 6.26-2.897a1.6 1.6 0 0 0 .207-.805V7.128l2.267-1.054c.234-.109.396-.44.4-.819.007-.378-.148-.715-.381-.836zm-.472.927L8.998 9.135l-1.773-.797-.478-.227 3.775-2.078a.431.431 0 0 0 .169-.58.42.42 0 0 0-.573-.171L5.8 7.663 3.535 6.591.859 5.346C.854 5.321.847 5.29.847 5.248c0-.048.007-.087.014-.114L9.001.928l8.141 4.206a.448.448 0 0 1 .002.212z"/>
</svg>
