<svg xmlns="http://www.w3.org/2000/svg" width="20" height="20" viewBox="0 0 20 20">
    <path fill="#FF64A0" fill-rule="nonzero" d="M10 0c5.57.053 10.042 4.53 9.99 10.003a9.815 9.815 0 0 1-2.887 7.031A10.172 10.172 0 0 1 10 20a10.172 10.172 0 0 1-7.103-2.966A9.815 9.815 0 0 1 .01 10.003C-.042 4.53 4.43.053 10 0zm1.596 4.871a3.288 3.288 0 0 1 1.958.51c.522.307.937.76 1.192 1.303.206.403.336.839.384 1.287a3.585 3.585 0 0 1-.87 2.439 3.104 3.104 0 0 1-.954.707 3.57 3.57 0 0 1-1.285.382 3.42 3.42 0 0 1-2.208-.687 2.485 2.485 0 0 1-.626-.631 3.577 3.577 0 0 1-.695-1.797 3.57 3.57 0 0 1 .845-2.423c.275-.288.597-.529.953-.713.406-.2.844-.328 1.296-.377h.01zm-6.923 6.073a3.866 3.866 0 0 0 0 .428.415.415 0 0 0 .146.27l.829.84.217.213c.078.065.149.137.213.214-.112.13-.232.255-.358.372l-.938.921a.46.46 0 0 0-.077.097c-.042.05-.032.086-.057.127v.484c.119.193 0 .05.228.3.099.115.253.17.404.143.445 0 .362 0 .72-.352l.518-.509.264-.264c.088-.097.192-.189.27-.275l.73.707c.078.077.565.58.643.637a.788.788 0 0 0 .13.066h.486l.094-.041a.394.394 0 0 0 .077-.05c.223-.2.285-.27.285-.54 0-.464 0-.362-.362-.734-.275-.28-.71-.743-.99-1.018l-.036-.03c-.036-.026 0 0-.036-.046a2.88 2.88 0 0 1 .217-.219l.223-.234.45-.438c.156.097.296.204.472.31a4.602 4.602 0 0 0 1.819.566 4.76 4.76 0 0 0 3.197-.754 5.95 5.95 0 0 0 1.207-1.175 4.53 4.53 0 0 0 .855-2.342v-.784c0-.061-.036-.397-.052-.509a4.453 4.453 0 0 0-1.3-2.49 4.355 4.355 0 0 0-2.487-1.318c-.083 0-.425-.045-.477-.06h-.819a1.38 1.38 0 0 1-.368.04 4.394 4.394 0 0 0-1.958.81 2.78 2.78 0 0 0-.44.366c-.058.071-.13.127-.198.198-.34.329-.625.71-.839 1.13a5.068 5.068 0 0 0-.17 3.971c.147.36.337.701.564 1.018l-.891.89c-.057-.03-.202-.213-.275-.264-.072-.05-.684-.687-.803-.814-.352-.352-.264-.336-.746-.336a.423.423 0 0 0-.384.163.624.624 0 0 0-.197.315z"/>
</svg>
