<svg xmlns="http://www.w3.org/2000/svg" width="20" height="20" viewBox="0 0 20 20">
    <g fill="#9B9B9B" fill-rule="nonzero">
        <path d="M16.65 19.9H3.311C1.452 19.9 0 18.456 0 16.605V3.334C0 1.484 1.452.039 3.312.039h7.984c.408 0 .68.27.68.677 0 .406-.272.677-.68.677H3.312c-1.134 0-1.996.858-1.996 1.986v13.226c0 1.129.862 1.986 1.996 1.986h13.292c1.134 0 1.996-.857 1.996-1.986V8.661c0-.407.272-.678.68-.678.409 0 .681.271.681.678v7.944c0 1.851-1.452 3.295-3.312 3.295z"/>
        <path d="M9.98 10.647a.584.584 0 0 1-.453-.18.652.652 0 0 1 0-.949l9.3-9.299a.66.66 0 0 1 .953 0 .652.652 0 0 1 0 .948l-9.346 9.254c-.136.135-.272.226-.453.226z"/>
    </g>
</svg>
