<svg xmlns="http://www.w3.org/2000/svg" width="180" height="45" viewBox="0 0 180 45">
    <g fill="none" fill-rule="evenodd">
        <rect width="179" height="44" x=".5" y=".5" stroke="#CBD3E1" rx="22"/>
        <path fill="#ADB2BC" fill-rule="nonzero" d="M76.576 24.164c-2.963.025-5.377 2.458-5.352 5.442.024 2.984 2.439 5.417 5.401 5.392a5.401 5.401 0 0 0 5.352-5.417c0-2.984-2.414-5.417-5.401-5.417zm1.78 8.389l-1.78-1.793-1.78 1.793-1.158-1.167 1.78-1.793-1.78-1.793 1.158-1.166 1.78 1.793 1.78-1.793 1.157 1.166-1.78 1.793 1.78 1.793-1.158 1.167zm.435-19.398c0-1.166-.934-2.131-2.091-2.131H62.063a2.037 2.037 0 0 0-2.041 2.03V30.91c0 1.166.933 2.132 2.116 2.132h8.227l-.984-.84a3.896 3.896 0 0 1-.958-1.317h-4.667c-.884.025-1.606-.715-1.63-1.592V14.697c.024-.89.758-1.617 1.63-1.592h11.313c.884-.025 1.606.69 1.631 1.567v8.176l2.091.526V13.155zm-4.58 7.8h-9.372c-.573 0-1.034.476-1.034 1.04 0 .577.473 1.04 1.034 1.04h9.372c.572 0 1.033-.476 1.033-1.04 0-.564-.448-1.04-1.033-1.04zm1.033-4.101c0-.577-.448-1.04-1.033-1.04h-9.372c-.573 0-1.034.476-1.034 1.04 0 .577.473 1.04 1.034 1.04h9.372a1.034 1.034 0 0 0 1.033-1.04zm-10.405 9.291c-.548-.025-1.034.427-1.058.99-.025.553.423 1.042.983 1.067h3.572c.15-.427.398-.84.685-1.192.298-.35.709-.664 1.132-.865H64.84z"/>
        <text fill="#9EA5AF" font-family="PingFangSC-Medium, PingFang SC" font-size="16" font-weight="400">
            <tspan x="88" y="28">废弃</tspan>
        </text>
    </g>
</svg>
