<svg xmlns="http://www.w3.org/2000/svg" width="30" height="21" viewBox="0 0 30 21">
    <path fill="#B9C2D2" fill-rule="nonzero" d="M29.954 14.63c-.355-2.834-2.849-4.888-5.64-4.888H22.87V8.348c0-4.29-3.152-8.042-7.33-8.33-4.583-.314-8.41 3.417-8.41 8.047v1.677H5.686c-2.79 0-5.281 2.05-5.64 4.889C-.384 18.064 2.225 21 5.49 21h19.017c3.267 0 5.875-2.936 5.447-6.37zM19.02 12.256l-.193.198a.955.955 0 0 1-1.377 0l-1.322-1.356v5.716c0 .632-.5 1.148-1.12 1.148h-.018c-.617 0-1.12-.512-1.12-1.148v-5.716l-1.323 1.356a.955.955 0 0 1-1.377 0l-.192-.198a1.013 1.013 0 0 1 0-1.41l3.29-3.372a.95.95 0 0 1 .729-.29c.263-.01.53.086.729.29l3.29 3.372a1.01 1.01 0 0 1 .004 1.41z"/>
</svg>
