<svg xmlns="http://www.w3.org/2000/svg" width="20" height="20" viewBox="0 0 20 20">
    <path fill="#B6B2B2" fill-rule="nonzero" d="M15.602 17.23c0 .688-.546 1.247-1.217 1.247h-8.77c-.671 0-1.217-.56-1.217-1.247V3.991h11.204v13.24zM6.832 1.753a.25.25 0 0 1 .25-.256h5.852c.14 0 .25.112.25.256v.751H6.832v-.751zm12.422.751h-4.62v-.751c0-.96-.764-1.743-1.7-1.743H7.082C6.145.01 5.38.793 5.38 1.753v.751H.746a.742.742 0 0 0-.734.752c0 .415.328.751.734.751H2.93V17.23c0 1.52 1.201 2.75 2.684 2.75h8.77c1.483 0 2.684-1.23 2.684-2.75V3.991h2.185a.742.742 0 0 0 .734-.751.728.728 0 0 0-.734-.736zM10 16.223a.742.742 0 0 0 .733-.752V7.477A.742.742 0 0 0 10 6.725a.742.742 0 0 0-.733.752v7.994c0 .416.327.752.733.752zm-3.418 0a.742.742 0 0 0 .734-.752V7.477a.742.742 0 0 0-.734-.752.742.742 0 0 0-.733.752v7.994c.016.416.343.752.733.752zm6.836 0a.742.742 0 0 0 .733-.752V7.477a.742.742 0 0 0-.733-.752.742.742 0 0 0-.734.752v7.994c0 .416.328.752.734.752z"/>
</svg>
