<svg xmlns="http://www.w3.org/2000/svg" width="20" height="20" viewBox="0 0 20 20">
    <path fill="#307DF6" fill-rule="nonzero" d="M10 0a10.192 10.192 0 0 1 7.111 2.97A9.81 9.81 0 0 1 20 10.002c.05 5.47-4.426 9.944-10 9.997-5.574-.053-10.05-4.528-10-9.997A9.81 9.81 0 0 1 2.89 2.969 10.192 10.192 0 0 1 10 0zM8.072 8.523c.468-.006.931.087 1.359.272.187.082.369.176.543.282.253.152.478.344.667.568.484.582.778 1.294.841 2.043.01.467-.083.93-.272 1.359a3.107 3.107 0 0 1-1.595 1.7 3.435 3.435 0 0 1-1.287.347 3.49 3.49 0 0 1-2.174-.72 3.5 3.5 0 0 1-1.256-2.45 3.439 3.439 0 0 1 .728-2.133 1.68 1.68 0 0 1 .184-.231c.275-.283.6-.515.96-.685.408-.19.85-.299 1.302-.322v-.03zM11.82 7.13c-.065.082-.139.158-.22.226-.087.086-.6.619-.651.644a2.885 2.885 0 0 1-.241-.161 4.28 4.28 0 0 0-1.713-.644l-.344-.05h-.59c-.186-.001-.373.01-.558.035a4.213 4.213 0 0 0-2.405 1.107 4.348 4.348 0 0 0-1.57 3.114 4.85 4.85 0 0 0 .262 2.083c.198.536.501 1.028.892 1.45.368.418.81.77 1.303 1.036.263.142.542.255.83.337.157.053.318.09.483.11.112 0 .461.046.512.061h.79c.12-.025.242-.038.364-.04l.333-.06c.209-.045.413-.107.61-.187a4.368 4.368 0 0 0 1.442-.916l.2-.2c.201-.195.383-.407.543-.635a4.679 4.679 0 0 0 .749-3.165 4.087 4.087 0 0 0-.318-1.267 3.367 3.367 0 0 0-.251-.529c-.052-.085-.103-.17-.16-.246a1.837 1.837 0 0 1-.153-.237c.143-.16.318-.312.482-.473l.974-.976.241-.241c.07-.086.151-.162.241-.227V8.85c.056.092.125.175.205.247.118.11.17.085.364.085.477 0 .436.04.688-.21.107-.112.087-.162.087-.358V5.092a.727.727 0 0 0-.21-.262c-.124-.12-.18-.095-.375-.095h-2.302c-.147.01-.294.01-.441 0h-.744a.602.602 0 0 0-.154.095c-.23.232-.23.201-.23.503 0 .388-.057.438.256.71.118.1.23.075.405.075h1.436a7.225 7.225 0 0 1-.513.503l-.4.403-.067.065a.234.234 0 0 0-.035.036h-.031l-.016.005z"/>
</svg>
