<svg xmlns="http://www.w3.org/2000/svg" width="16" height="15" viewBox="0 0 16 15">
    <path fill="#717170" fill-rule="nonzero" d="M2.32 15a2.298 2.298 0 0 1-1.649-.671 2.284 2.284 0 0 1-.67-1.645V5.142a2.285 2.285 0 0 1 .671-1.643 2.3 2.3 0 0 1 1.648-.67h2.41V1.653C4.73.74 5.472.001 6.388 0h3.31c.916 0 1.658.74 1.659 1.653v1.176h2.313a2.3 2.3 0 0 1 1.648.67c.436.435.679 1.027.672 1.643v7.542a2.285 2.285 0 0 1-.672 1.643 2.3 2.3 0 0 1-1.648.67L2.32 15zM.857 12.684a1.5 1.5 0 0 0 1.464 1.46h11.35a1.5 1.5 0 0 0 1.463-1.46V8.4h-3.872v.516a.428.428 0 0 1-.857 0v-.516H5.586v.516a.427.427 0 0 1-.856 0v-.516H.857v4.283zM10.834 6.6a.406.406 0 0 1 .428.427v.516h3.872V5.142a1.5 1.5 0 0 0-1.464-1.46H2.32a1.5 1.5 0 0 0-1.463 1.46v2.402H4.73v-.516a.427.427 0 0 1 .855 0v.516h4.824v-.516a.404.404 0 0 1 .425-.427zM6.388.854a.795.795 0 0 0-.802.799v1.176H10.5V1.653a.79.79 0 0 0-.801-.799H6.388z"/>
</svg>
