<svg xmlns="http://www.w3.org/2000/svg" width="16" height="18" viewBox="0 0 16 18">
    <path fill="#676767" fill-rule="nonzero" d="M15.99 7.707C15.99 3.457 12.405 0 8 0 3.595 0 .01 3.457.01 7.706c0 3.517 2.498 6.586 5.992 7.456-.527 1.634-1.655 2.088-1.715 2.11a.374.374 0 0 0-.247.42.387.387 0 0 0 .383.308h7.161c.215 0 .39-.168.391-.375a.377.377 0 0 0-.273-.358c-.195-.092-1.198-.63-1.693-2.108 3.487-.873 5.98-3.941 5.98-7.452zm-5.586 9.541H5.632c.467-.459.963-1.185 1.225-2.275 0-.003.002-.005.003-.008v-.005a7.029 7.029 0 0 0 .188-1.648c0-1.981-.8-3.403-1.556-4.303.402.177.874.418 1.407.74a.399.399 0 0 0 .523-.1A4.09 4.09 0 0 1 8.65 8.566c-.064.14-.115.277-.153.407-.13.446-.106.81.064 1.084a.397.397 0 0 0 .52.135 3.615 3.615 0 0 1 1.09-.353c-.617.603-1.219 1.658-1.219 3.474 0 .625.078 1.164.196 1.642v.009c.001.005.005.008.006.013.273 1.079.78 1.81 1.251 2.272zm-.576-2.819a6.353 6.353 0 0 1-.097-1.116c0-3.027 1.857-3.497 1.932-3.514.183-.04.31-.2.304-.38a.38.38 0 0 0-.33-.358c-.024-.004-1.245-.173-2.423.25.008-.042.02-.087.034-.136.147-.514.54-1.043.722-1.135.17-.087.25-.28.186-.456a.394.394 0 0 0-.44-.246c-.068.012-1.576.301-2.703 1.598C5.18 7.882 4.063 7.77 4.014 7.764a.392.392 0 0 0-.404.25.369.369 0 0 0 .155.439c.102.064 2.505 1.614 2.505 4.86 0 .413-.034.783-.09 1.118C3.035 13.64.79 10.875.79 7.706.79 3.871 4.022.751 8 .751c3.975 0 7.21 3.12 7.21 6.955 0 3.165-2.243 5.93-5.382 6.723z"/>
</svg>
